<svg  version="1.1" id="Layer_1" xmlns="http://www.w3.org/2000/svg" xmlns:xlink="http://www.w3.org/1999/xlink" x="0px" y="0px"
	 width="100%" viewBox="0 0 1024 752" enable-background="new 0 0 1024 752" xml:space="preserve">
	 <g fill="#ffffff" stroke="#ffffff" stroke-width="0.3" fill-rule="non-zero">
	 <path  opacity="1.000000"  
	d="
M311.440002,397.456055 
	C310.350494,383.633484 312.085205,370.207916 312.174591,356.738281 
	C312.192200,354.080292 312.709167,351.415039 312.600006,348.769470 
	C312.457367,345.312897 313.363098,343.515778 317.305542,343.595825 
	C320.783447,343.666412 322.803894,344.485657 322.339600,348.376068 
	C322.268829,348.968750 322.421387,349.588104 322.491333,350.448792 
	C332.137695,340.430237 347.863647,339.052795 356.733459,351.353577 
	C361.721069,344.469330 368.630096,342.197998 376.821259,342.620544 
	C386.497742,343.119751 392.230774,348.394379 392.037598,358.060638 
	C391.791595,370.371948 390.951721,382.672546 390.295471,394.973877 
	C390.024963,400.044708 386.050507,397.993378 383.464142,398.204773 
	C380.113342,398.478607 379.926758,396.199463 380.081024,393.542694 
	C380.688782,383.076385 381.160400,372.602203 381.682648,362.130920 
	C381.903503,357.703003 381.211639,353.462067 376.506195,351.805054 
	C371.573608,350.068024 366.673859,350.382996 362.513824,354.259033 
	C356.609467,359.760437 357.074036,367.248047 356.443878,374.260864 
	C355.893494,380.385559 355.979218,386.587128 356.117432,392.747253 
	C356.215424,397.114258 354.476166,398.410492 350.173706,398.443329 
	C345.607941,398.478210 345.466766,396.166565 345.629181,392.797546 
	C346.110138,382.819275 346.557587,372.836975 346.809418,362.850952 
	C346.987183,355.802734 345.065643,352.634827 340.414093,351.352966 
	C334.382690,349.690857 328.083649,352.254761 324.975739,357.743652 
	C321.819855,363.317291 321.836334,369.593292 321.393921,375.698578 
	C320.997070,381.175385 321.168732,386.691864 321.033417,392.189453 
	C320.875031,398.623871 320.047241,399.107391 311.440002,397.456055 
z"/>
<path  opacity="1.000000"  
	d="
M754.716736,383.255341 
	C748.761963,375.848053 743.016663,368.726532 736.464966,360.605347 
	C736.034363,366.345764 735.546387,370.992615 735.370972,375.651215 
	C735.145386,381.642700 735.027039,387.646179 735.135559,393.639557 
	C735.213928,397.968079 732.757507,398.373718 729.335876,398.349915 
	C725.913208,398.326080 723.403137,397.903473 723.671265,393.551544 
	C724.131714,386.079041 724.462341,378.596649 724.721436,371.114044 
	C725.188110,357.633270 725.739197,344.151184 725.880432,330.665710 
	C725.932068,325.743683 728.250549,324.987183 732.404907,324.922333 
	C737.016479,324.850342 737.573425,327.252228 737.351013,330.907990 
	C736.926758,337.883698 736.615540,344.867554 736.370361,351.851959 
	C736.315125,353.424957 735.780457,355.145996 737.112122,356.870514 
	C741.613403,353.534912 744.777649,349.045898 748.365845,344.991516 
	C752.670410,340.127686 756.887268,335.182556 761.025635,330.176392 
	C765.650269,324.581970 768.619385,323.662811 776.248596,325.849823 
	C776.866577,327.679626 775.302124,328.496307 774.384399,329.528320 
	C766.637451,338.240112 758.984009,347.041840 751.001526,355.533691 
	C748.114075,358.605377 748.632324,360.709869 751.069946,363.550018 
	C759.314880,373.156677 767.412903,382.889801 775.523926,392.610657 
	C776.667786,393.981567 778.258728,395.101807 778.519531,397.080475 
	C772.001587,400.078552 766.665588,398.764252 762.650452,393.355560 
	C760.170044,390.014069 757.507202,386.807983 754.716736,383.255341 
z"/>
<path  opacity="1.000000"  
	d="
M796.390869,386.333893 
	C796.361328,388.634430 796.347046,390.466461 796.325745,392.298431 
	C796.257019,398.212494 795.815002,398.488525 790.105225,398.345520 
	C786.791260,398.262543 785.616028,396.773163 785.865845,393.703644 
	C787.621460,372.132477 787.927979,350.497559 788.644043,328.882111 
	C788.794495,324.339691 791.920654,325.149353 794.625732,324.992676 
	C797.594666,324.820648 799.642700,325.842377 799.178467,329.239807 
	C798.230042,336.179504 798.212708,343.140656 798.177002,351.045868 
	C806.616394,341.916443 816.710876,341.331512 827.144531,343.502991 
	C836.126404,345.372314 840.323669,350.705719 840.105408,359.845490 
	C839.827515,371.482635 838.904785,383.103210 838.368774,394.735931 
	C838.133484,399.841003 834.368347,398.004028 831.737366,398.254425 
	C828.243896,398.586853 827.568115,396.496460 827.871582,393.511353 
	C828.881042,383.582458 829.708130,373.636597 829.687195,363.646454 
	C829.670532,355.669922 826.969421,352.438354 819.266174,350.931671 
	C807.001404,348.532776 798.436890,356.134247 797.373047,370.419586 
	C796.990051,375.563721 796.722900,380.716522 796.390869,386.333893 
z"/>
<path  opacity="1.000000"  
	d="
M261.194672,353.783386 
	C247.063599,345.516724 233.493057,353.325348 232.364410,370.072296 
	C231.849487,377.712646 231.407288,385.374695 231.411407,393.026642 
	C231.413712,397.282776 229.778641,398.412750 225.790756,398.403900 
	C221.780075,398.394989 220.452530,396.875946 220.784531,393.033356 
	C222.620163,371.788177 222.783401,350.464050 223.588104,329.171570 
	C223.770782,324.337799 226.852188,325.091156 229.785446,325.013824 
	C233.385223,324.918915 234.476608,326.831421 233.938431,330.122650 
	C232.830566,336.897705 233.440735,343.745453 232.895676,351.576996 
	C240.968979,341.781952 251.136948,341.451508 261.534851,343.384094 
	C270.861542,345.117615 275.220947,350.372528 275.070404,359.805267 
	C274.882019,371.612488 274.026672,383.414734 273.233704,395.203949 
	C272.897888,400.196259 268.766418,397.903625 266.203705,398.200226 
	C262.769440,398.597687 262.583008,396.100220 262.809052,393.571960 
	C263.713348,383.458710 264.624786,373.346985 264.680786,363.180878 
	C264.699738,359.738495 264.051880,356.553436 261.194672,353.783386 
z"/>
<path  opacity="1.000000"  
	d="
M941.065796,342.654114 
	C943.200256,342.675903 944.872681,342.606659 946.528992,342.738922 
	C957.222473,343.592926 963.148010,349.438202 963.016174,360.166534 
	C962.873169,371.801483 961.963257,383.429260 961.288879,395.054413 
	C960.994873,400.124054 956.977661,397.964661 954.415955,398.217529 
	C951.346680,398.520477 951.161621,396.492188 951.314697,393.946808 
	C951.883850,384.483368 952.388916,375.010529 952.618835,365.533936 
	C952.819763,357.250244 950.495972,353.548279 944.645081,351.715149 
	C937.102661,349.352020 928.928955,351.755127 924.809448,357.474976 
	C921.212097,362.469757 920.810120,368.328430 920.361267,374.119110 
	C919.847046,380.753540 919.404114,387.412018 919.391907,394.060913 
	C919.382141,399.347076 915.816589,398.118530 912.839050,398.302368 
	C909.332520,398.518799 908.557678,396.526917 908.926025,393.561096 
	C910.733032,379.010437 910.622559,364.341736 911.441895,349.732849 
	C911.709595,344.958984 912.989929,343.373779 917.782410,343.573395 
	C923.268738,343.801880 921.422546,347.470123 921.621704,351.052521 
	C926.962708,345.268311 933.185059,342.488037 941.065796,342.654114 
z"/>
<path  opacity="1.000000"  
	d="
M111.421791,325.159454 
	C124.195747,325.041260 136.515564,324.978546 148.835312,324.990753 
	C151.454758,324.993347 154.313919,324.614807 154.341782,328.826630 
	C154.368210,332.821472 152.269501,333.421478 148.949615,333.359406 
	C140.793854,333.206848 132.629990,333.424133 124.477226,333.203491 
	C120.519142,333.096313 119.129509,334.634888 119.298195,338.483246 
	C119.502106,343.135345 119.446556,347.810516 119.246544,352.464661 
	C119.107262,355.705536 120.382454,356.974792 123.586571,356.928436 
	C130.077972,356.834503 136.572250,356.964661 143.065155,356.942474 
	C149.913925,356.919067 150.304825,357.411682 148.555893,365.320526 
	C140.805161,365.320526 132.862152,365.309753 124.919174,365.323883 
	C118.353287,365.335571 118.344254,365.348541 118.307022,371.932617 
	C118.266541,379.091858 118.016426,386.259918 118.287964,393.407776 
	C118.504669,399.112213 114.763458,398.125824 111.308746,398.372162 
	C107.542770,398.640747 106.426437,397.226440 106.588875,393.488373 
	C107.520569,372.047516 108.824486,350.616302 108.732407,329.140778 
	C108.725021,327.417877 108.832390,325.744110 111.421791,325.159454 
z"/>
<path  opacity="1.000000"  
	d="
M866.940796,349.910278 
	C863.036621,350.869019 859.546570,351.713715 855.989197,352.574707 
	C854.679810,347.397705 856.240295,344.726349 861.375000,343.919342 
	C869.974304,342.567841 878.568481,341.627502 887.121887,343.738708 
	C894.591736,345.582428 897.443542,349.304657 897.297791,356.937866 
	C897.059753,369.405090 896.494812,381.865845 896.220459,394.332703 
	C896.133423,398.286285 893.686279,398.334045 890.833069,398.331360 
	C887.951294,398.328644 885.407288,398.230347 885.666748,394.221985 
	C886.085327,387.755554 886.379089,381.280640 886.681396,374.807281 
	C886.765564,373.005066 886.694153,371.195618 886.694153,368.515228 
	C878.372620,372.008667 869.890747,372.872772 862.509155,377.146210 
	C858.872070,379.251831 857.480408,382.400879 858.274658,386.413177 
	C859.127319,390.720245 862.468872,392.225616 866.325317,392.610413 
	C870.793091,393.056244 875.262146,392.668274 879.868530,391.248962 
	C880.789124,395.518555 879.952026,398.491394 875.739136,398.966797 
	C869.966980,399.618164 864.122009,399.966614 858.383118,398.446686 
	C852.621826,396.920837 849.346985,393.054108 848.258911,387.317322 
	C847.205933,381.765961 848.969604,377.151978 853.311462,373.549530 
	C858.898743,368.913666 865.873047,367.675354 872.560242,365.724091 
	C875.903931,364.748413 879.297302,363.862579 882.514465,362.557220 
	C885.548889,361.326050 887.190186,358.837646 886.846863,355.422150 
	C886.510925,352.080200 884.096558,350.501434 881.225403,349.841675 
	C876.643555,348.788727 871.982056,349.035736 866.940796,349.910278 
z"/>
<path  opacity="1.000000"  
	d="
M445.276611,337.379425 
	C445.261200,343.940918 445.261200,350.051514 445.261200,356.933655 
	C453.572632,356.933655 462.016937,356.921722 470.461121,356.941254 
	C472.863739,356.946808 475.193481,356.929321 475.300049,360.417969 
	C475.398773,363.651337 474.525696,365.418182 470.865295,365.342651 
	C463.539337,365.191437 456.204834,365.437378 448.879852,365.264648 
	C445.470490,365.184296 444.123901,366.359314 444.087769,369.836700 
	C444.004730,377.824127 443.360870,385.810638 443.432495,393.793152 
	C443.487244,399.890991 439.269379,398.003784 436.151825,398.265259 
	C432.404663,398.579590 431.876556,396.503754 432.101135,393.229553 
	C432.784027,383.272583 433.253387,373.298248 433.638184,363.324219 
	C434.074463,352.016235 434.436432,340.702728 434.597473,329.388306 
	C434.645477,326.017365 436.173401,325.002899 439.147400,325.006409 
	C451.307098,325.020844 463.466827,324.998993 475.626526,325.003845 
	C478.288788,325.004883 480.186401,325.783783 479.984497,329.026276 
	C479.796021,332.053223 478.556610,333.441803 475.309113,333.372223 
	C466.817413,333.190277 458.319855,333.300964 449.825073,333.233643 
	C447.214325,333.212952 445.081451,333.580841 445.276611,337.379425 
z"/>
<path  opacity="1.000000"  
	d="
M523.480530,353.782654 
	C518.174561,347.105103 511.210938,349.230499 504.779846,349.796417 
	C500.770050,350.149261 496.860413,351.640594 492.686523,352.675354 
	C491.912079,347.763031 492.966339,344.916321 497.958923,344.052399 
	C506.550690,342.565643 515.148071,341.620605 523.703735,343.663391 
	C531.645142,345.559570 534.469055,349.390076 534.299988,357.583496 
	C534.049500,369.723145 533.443665,381.855865 533.239929,393.995758 
	C533.161804,398.652222 530.241089,398.198242 527.155884,398.347351 
	C523.595764,398.519348 522.435486,396.959045 522.665161,393.588501 
	C523.105713,387.120789 523.404602,380.642365 523.673950,374.164703 
	C523.741455,372.539948 524.077637,370.840607 523.036499,368.900940 
	C516.178284,371.089813 509.250610,373.255035 502.363190,375.541443 
	C501.130096,375.950806 500.029663,376.810852 498.926147,377.549713 
	C495.712433,379.701599 494.172333,382.628235 495.147614,386.518127 
	C496.140839,390.479309 499.185272,392.117493 502.856201,392.583740 
	C507.482391,393.171326 512.101074,392.551514 516.942322,391.414368 
	C517.634949,395.343506 517.102234,398.354492 513.065491,398.877197 
	C507.134003,399.645172 501.116272,400.024628 495.232025,398.352051 
	C489.538727,396.733826 486.172882,392.877625 485.247009,387.083435 
	C484.330200,381.345917 486.260498,376.583252 490.905090,373.047089 
	C496.363800,368.891052 503.018402,367.714325 509.374359,365.811127 
	C512.397522,364.905853 515.500305,364.217194 518.441772,363.100555 
	C522.479431,361.567780 524.650452,358.720459 523.480530,353.782654 
z"/>
<path  opacity="1.000000"  
	d="
M197.136505,396.705109 
	C197.409836,387.023926 197.847885,377.769257 198.307587,368.057037 
	C193.221527,370.654358 188.200119,371.813110 183.274994,373.275360 
	C180.083847,374.222778 176.897552,375.213806 174.066849,377.057526 
	C170.552063,379.346802 168.367325,382.438599 169.549759,386.720154 
	C170.668884,390.772369 174.077057,392.356354 177.968475,392.612457 
	C181.271988,392.829834 184.621002,393.036316 187.894028,392.032135 
	C189.132355,391.652161 190.472672,391.239014 191.730698,392.173035 
	C192.153381,397.064056 189.656525,399.206940 185.022446,399.260071 
	C181.191223,399.303986 177.343033,399.478638 173.530640,399.203461 
	C166.537827,398.698792 161.276062,394.454254 159.905731,388.592743 
	C158.273605,381.611359 160.663010,375.818726 166.981918,371.896271 
	C172.298676,368.595917 178.357819,367.271088 184.312729,365.692078 
	C187.045959,364.967377 189.828125,364.342285 192.457520,363.332092 
	C195.894623,362.011597 198.936676,359.770721 198.457748,355.692444 
	C197.950668,351.374329 194.323624,349.836060 190.489105,349.414825 
	C184.295425,348.734467 178.191666,349.451447 172.238983,351.366486 
	C170.699356,351.861786 169.228226,352.862061 167.225510,352.200592 
	C166.193039,348.112274 166.876907,345.169708 171.734833,344.214874 
	C180.466431,342.498596 189.247299,341.570343 197.979996,343.667328 
	C205.920975,345.574188 209.105316,349.432281 208.945648,357.510132 
	C208.699066,369.986145 207.943924,382.454590 207.252686,394.917816 
	C207.040588,398.742340 203.218506,399.525208 197.136505,396.705109 
z"/>
<path  opacity="1.000000"  
	d="
M627.629333,343.233734 
	C634.874023,342.537048 641.708679,341.890594 648.422119,343.637543 
	C656.185303,345.657715 659.437317,349.635590 659.190063,357.622162 
	C658.803955,370.091766 658.006653,382.549591 657.308533,395.008209 
	C657.024109,400.084747 653.025085,397.940186 650.459595,398.212311 
	C647.541870,398.521851 646.938965,396.745514 647.150696,394.065674 
	C647.816650,385.637512 648.265808,377.192261 648.817139,368.464417 
	C641.989990,370.616028 635.674744,372.522064 629.425476,374.624298 
	C627.398254,375.306244 625.415771,376.311218 623.638733,377.504730 
	C620.531555,379.591614 618.576538,382.476685 619.599731,386.412018 
	C620.602966,390.270630 623.611755,392.104248 627.305969,392.549408 
	C630.595520,392.945831 633.959900,393.026093 637.247253,392.277710 
	C638.697510,391.947540 640.105713,391.337982 641.842224,392.235260 
	C642.280945,396.291199 640.716492,398.915253 636.357422,399.124817 
	C632.040344,399.332336 627.674622,399.519592 623.386536,399.116913 
	C616.014282,398.424591 611.307312,394.193756 609.942139,387.715607 
	C608.559814,381.155853 611.517700,375.110596 617.927429,371.441681 
	C621.866089,369.187164 626.180481,367.919617 630.516968,366.721771 
	C634.523987,365.615021 638.604431,364.725098 642.526794,363.374542 
	C646.232300,362.098602 649.183228,359.597290 648.513794,355.275299 
	C647.842773,350.943146 644.211304,349.668427 640.341736,349.335388 
	C634.135864,348.801239 628.046997,349.510406 622.109375,351.429932 
	C620.706665,351.883362 619.388489,352.757233 617.459045,352.235382 
	C616.706665,348.443085 616.770508,345.164948 621.799866,344.348633 
	C623.603577,344.055908 625.393127,343.675507 627.629333,343.233734 
z"/>
<path  opacity="1.000000"  
	d="
M599.436096,375.707275 
	C607.096802,386.788086 601.949463,397.709290 588.578979,399.160858 
	C583.962585,399.662048 579.269836,399.615143 574.641479,398.728210 
	C567.504028,397.360413 567.164795,396.920288 568.045166,388.979279 
	C573.330444,390.244324 578.467163,392.202148 584.023987,391.773376 
	C587.759521,391.485138 591.112610,390.768219 592.532837,386.946899 
	C593.961487,383.103027 592.044006,380.226532 589.122009,377.821472 
	C585.137573,374.541962 581.003479,371.408966 577.296936,367.836182 
	C572.712402,363.417175 569.057190,358.309753 571.928406,351.463318 
	C574.669861,344.926208 580.374146,342.911774 586.920837,342.677765 
	C589.913086,342.570740 592.922913,342.583954 595.909973,342.774384 
	C603.234863,343.241455 603.597961,343.724274 603.138062,351.631927 
	C598.917358,351.490143 594.851440,349.813965 590.556152,350.213470 
	C586.932190,350.550476 583.276001,350.922882 581.754517,354.675568 
	C580.143311,358.649536 583.054504,361.284180 585.652283,363.626709 
	C590.098083,367.635681 595.170532,370.929474 599.436096,375.707275 
z"/>
<path  opacity="1.000000"  
	d="
M683.768921,341.593994 
	C683.228943,353.520020 682.780823,364.982574 682.272766,376.442505 
	C682.022400,382.088989 681.266541,387.744507 681.465393,393.370300 
	C681.651001,398.624084 678.572266,398.254486 675.073608,398.341980 
	C670.801941,398.448822 670.708313,395.948700 670.956055,392.783661 
	C672.461365,373.553741 673.339905,354.291931 673.723206,335.007355 
	C673.749634,333.676392 673.733948,332.344604 673.757568,331.013580 
	C673.855713,325.490814 676.865845,323.474030 682.118408,325.234009 
	C684.206604,325.933716 684.359619,327.449921 684.303223,329.165436 
	C684.172180,333.154236 683.994751,337.141541 683.768921,341.593994 
z"/>
<path  opacity="1.000000"  
	d="
M296.792206,343.815308 
	C299.728516,344.585724 299.351898,346.689941 299.232269,348.403412 
	C298.155579,363.820709 297.338287,379.247711 297.288177,394.705872 
	C297.274292,398.988495 294.197357,398.200134 291.648773,398.277985 
	C289.053192,398.357239 286.484253,398.386383 286.680054,394.567108 
	C287.190338,384.613647 287.436462,374.641846 288.187195,364.707581 
	C288.526489,360.218048 288.614532,355.747650 288.654633,351.265045 
	C288.723053,343.615448 288.690338,343.615143 296.792206,343.815308 
z"/>
<path  opacity="1.000000"  
	d="
M559.280396,348.091919 
	C558.247375,363.645813 557.265625,378.739960 557.386536,393.865845 
	C557.423706,398.518585 554.676575,398.208954 551.535217,398.347565 
	C547.892151,398.508331 546.410095,397.163818 546.651550,393.437042 
	C547.242188,384.319824 547.372009,375.166534 548.183960,366.072113 
	C548.718872,360.080383 548.552002,354.111938 548.663147,348.134094 
	C548.713135,345.441254 549.286926,343.430939 552.503235,343.729553 
	C555.314453,343.990570 559.387390,342.222961 559.280396,348.091919 
z"/>
<path  opacity="1.000000"  
	d="
M549.258179,326.347778 
	C552.021606,323.660187 555.087402,324.853424 557.953979,324.865326 
	C559.885986,324.873322 560.226562,326.480408 560.208557,328.075134 
	C560.188354,329.868073 560.559937,332.079407 558.416748,332.783539 
	C555.737671,333.663788 552.693787,333.925293 550.185669,332.651123 
	C547.879272,331.479553 549.001526,328.842194 549.258179,326.347778 
z"/>
<path  opacity="1.000000"  
	d="
M295.889221,324.686157 
	C299.433411,324.500397 300.351013,326.139984 300.201355,328.966583 
	C300.055023,331.730255 298.948700,333.081177 296.009949,333.261414 
	C289.852722,333.639008 288.222015,332.469330 288.880310,327.818359 
	C289.510742,323.363953 292.948364,325.096771 295.889221,324.686157 
z"/></g>

</svg>