<?xml version="1.0" encoding="utf-8"?>
<!-- Generator: Adobe Illustrator 26.0.1, SVG Export Plug-In . SVG Version: 6.00 Build 0)  -->
<svg version="1.1" id="Layer_1" xmlns="http://www.w3.org/2000/svg" xmlns:xlink="http://www.w3.org/1999/xlink" x="0px" y="0px"
	 viewBox="0 0 604.8 635.4" style="enable-background:new 0 0 604.8 635.4;" xml:space="preserve">
<path d="M61.5,635.4c21.3-28,39.9-54.1,55.9-81.9c35-60.7,58.2-125.2,59.6-195.9c1.5-74.7-22.8-145.4-64.1-207.1
	C82.4,105,43.7,66,0,33c71.2-17.4,155.9-16.7,217.5,27.8c14.7,10.6,27.6,23.4,38.7,37.7c2.6,3.3,5,7.4,10.6,4.2
	c39.5-23.2,86.4-26.8,130.6-34.2c69.5-11.6,134.9-36.5,199-64.9c2.1-0.9,4.3-1.8,8.4-3.6c-4.1,32.7-12.5,62.4-25.5,90.9
	c-30.1,65.6-82.1,100.1-153,108c-36,4-72,8.6-108,12.4c-5.7,0.6-11.6,2.1-11.3,8.9c0.5,11.5,3.6,22.9,4.5,34.4
	c0.3,3.2,0.4,7.3,2.2,10.1c3.9,5.9,15.4,3.4,21.1,3c54.5-3.7,108.7-9.8,162.5-19.3c17.8-3.2,17.9-2.9,13.2,13.9
	c-20.1,71.5-63.7,107.7-139.8,116.3c-22.6,2.5-45.1,5.5-67.6,8.1c-4.8,0.6-8.9,0.6-11,6.8c-22.8,67.7-69.6,117-123.9,160.4
	c-33.2,26.5-66.6,52.7-100,79C67.2,633.5,65.8,633.7,61.5,635.4z" fill="#03031c"/>
<g>
</g>
<g>
</g>
<g>
</g>
<g>
</g>
<g>
</g>
</svg>
